<svg width="43" height="33" viewBox="0 0 43 33" fill="none" xmlns="http://www.w3.org/2000/svg">
<path d="M42.7742 25.2893L39.954 19.6356C39.6687 19.0649 39.1444 18.6535 38.5074 18.5208L29.9803 16.7158C29.3433 16.5831 28.7063 16.7424 28.2019 17.1471L23.2715 21.1618C23.1587 21.2481 23.0592 21.3609 22.9663 21.4671H22.661V20.485H22.6677C22.8402 20.4053 23.0061 20.3124 23.1654 20.193L28.182 16.2911C28.6797 15.8863 28.9783 15.3024 28.9783 14.6653V6.07195C28.9584 5.42828 28.6731 4.83769 28.1688 4.44618L23.1521 0.550946C22.3823 -0.0462787 21.314 -0.0462787 20.5442 0.550946L15.5342 4.45945C15.0232 4.85096 14.7312 5.44155 14.7312 6.07859L14.7511 14.6786C14.7511 15.3157 15.0365 15.8996 15.5474 16.2978L20.5707 20.1996C20.7234 20.3257 20.8893 20.412 21.0618 20.485H21.0684V21.4737H20.6636C20.584 21.3675 20.4845 21.2614 20.3717 21.1685L15.4346 17.1538C14.9369 16.749 14.2933 16.5897 13.6562 16.7225L5.12918 18.5274C4.49214 18.6601 3.96791 19.0715 3.68257 19.6422L0.862346 25.2959C0.431017 26.1652 0.656635 27.1871 1.41312 27.8043L6.34354 31.8123C6.84122 32.2237 7.49817 32.3764 8.12194 32.2436L16.649 30.4387C17.286 30.306 17.8102 29.9012 18.0956 29.3305L20.9158 23.6702C20.9954 23.5175 21.0485 23.3384 21.0883 23.1725H22.5549C22.588 23.3516 22.6544 23.5109 22.7274 23.6702L25.5476 29.3305C25.833 29.9012 26.3572 30.306 26.9942 30.4387L35.5213 32.2436C36.1583 32.3764 36.7953 32.2237 37.2997 31.8123L42.2367 27.8043C42.9866 27.1871 43.2122 26.1586 42.7809 25.2959L42.7742 25.2893ZM16.5362 15.0569C16.4101 14.9573 16.3504 14.8246 16.3504 14.6653L16.3305 6.07859C16.3305 5.92596 16.4034 5.78661 16.5295 5.69371L21.5396 1.78521C21.7254 1.63922 21.9842 1.63922 22.1633 1.78521L27.1867 5.68707C27.3127 5.78661 27.3857 5.92596 27.3857 6.07859V14.6653C27.3924 14.818 27.326 14.9573 27.2066 15.0502L22.6743 18.5738V10.3985C23.0326 10.1463 23.2649 9.73493 23.2649 9.27042C23.2649 8.51394 22.6411 7.8968 21.8647 7.8968C21.0883 7.8968 20.4712 8.51394 20.4712 9.27042C20.4712 9.73493 20.7101 10.1463 21.0684 10.3985V18.5871L16.5428 15.0635L16.5362 15.0569ZM16.6622 28.6271C16.6025 28.7598 16.4764 28.8594 16.3238 28.8926L7.79678 30.6975C7.64416 30.7307 7.4849 30.6975 7.36546 30.598L2.43504 26.5833C2.25587 26.4373 2.19615 26.1918 2.30232 25.9861L5.12255 20.3257C5.18227 20.193 5.32162 20.0935 5.46761 20.0669L13.9946 18.2553C14.1473 18.2288 14.2999 18.262 14.4127 18.3615L18.8653 21.9847L10.7431 23.6967C10.4246 23.4047 9.9667 23.2587 9.50219 23.3583C8.74571 23.5175 8.26793 24.2541 8.43382 25.004C8.59308 25.7472 9.33629 26.2183 10.0928 26.0591C10.5573 25.9595 10.9156 25.6476 11.0815 25.2495L19.2038 23.5242L16.649 28.6338L16.6622 28.6271ZM41.2148 26.5833L36.2777 30.598C36.1649 30.6975 35.999 30.7307 35.8597 30.6975L27.3327 28.8926C27.18 28.8594 27.0473 28.7598 26.9876 28.6271L24.4461 23.5175L32.5617 25.2429C32.7342 25.6476 33.0992 25.9595 33.5504 26.0524C34.3069 26.2117 35.0501 25.7405 35.2094 24.9973C35.3819 24.2475 34.8975 23.5175 34.141 23.3516C33.6765 23.2521 33.2186 23.3981 32.9001 23.6901L24.7779 21.978L29.2305 18.3549C29.3433 18.2553 29.5092 18.2222 29.6618 18.2487L38.1889 20.0603C38.3415 20.0868 38.4676 20.1864 38.5273 20.3191L41.3475 25.9794C41.4537 26.1851 41.4006 26.4373 41.2214 26.5767L41.2148 26.5833Z" fill="#081B15"/>
</svg>