<?xml version="1.0" standalone="no"?>
<!DOCTYPE svg PUBLIC "-//W3C//DTD SVG 20010904//EN"
 "http://www.w3.org/TR/2001/REC-SVG-20010904/DTD/svg10.dtd">
<svg version="1.0" xmlns="http://www.w3.org/2000/svg"
 width="1280.000000pt" height="1280.000000pt" viewBox="0 0 1280.000000 1280.000000"
 preserveAspectRatio="xMidYMid meet">

<g transform="translate(0.000000,1280.000000) scale(0.100000,-0.100000)"
fill="#000000" stroke="none">
<path d="M6393 10339 c-29 -4 -73 -17 -97 -30 -63 -34 -879 -672 -916 -717
-17 -20 -39 -61 -50 -90 -19 -51 -20 -80 -20 -786 0 -694 1 -738 19 -795 24
-77 54 -116 139 -184 192 -153 787 -610 817 -628 l35 -21 0 -79 0 -79 -34 0
c-21 0 -39 7 -47 19 -8 10 -113 99 -234 197 -121 98 -308 250 -415 338 -275
224 -307 236 -515 193 -1387 -289 -1406 -293 -1481 -380 -22 -26 -129 -229
-281 -536 -237 -478 -245 -497 -250 -565 -6 -82 17 -158 66 -220 49 -62 865
-718 923 -743 36 -15 74 -22 118 -23 87 0 1460 289 1528 321 93 45 106 66 372
600 138 275 250 506 250 514 0 12 21 15 120 15 97 0 120 -3 120 -14 0 -8 112
-240 250 -515 266 -534 279 -554 373 -600 28 -13 219 -59 489 -116 244 -51
562 -119 707 -149 386 -82 416 -79 590 62 753 609 776 628 812 694 32 58 34
70 34 153 l0 90 -247 496 c-168 340 -258 510 -284 539 -53 59 -116 87 -271
121 -149 32 -955 203 -1183 250 -167 35 -220 33 -303 -9 -49 -26 -773 -607
-863 -694 -29 -28 -48 -39 -65 -36 -23 3 -24 7 -24 77 0 62 3 76 19 85 21 13
226 170 624 479 293 228 326 261 352 352 8 29 10 252 8 800 l-3 760 -27 50
c-37 71 -72 101 -450 393 -185 144 -365 283 -400 310 -112 88 -195 115 -305
101z m112 -272 c74 -52 792 -611 808 -629 16 -19 17 -69 17 -732 0 -554 -3
-716 -12 -729 -22 -28 -731 -576 -740 -571 -4 3 -8 294 -8 646 l0 641 39 42
c84 91 81 208 -8 296 -70 70 -155 87 -241 48 -89 -40 -130 -103 -130 -196 0
-66 24 -126 64 -162 l26 -24 0 -649 c0 -356 -2 -648 -5 -648 -9 0 -709 547
-730 570 -19 21 -20 43 -23 723 -2 494 0 708 8 726 10 23 711 581 822 654 46
30 64 29 113 -6z m-1255 -2634 c23 -16 159 -126 558 -451 83 -68 152 -127 152
-131 0 -3 -125 -32 -278 -64 -273 -57 -330 -69 -785 -165 -130 -28 -230 -44
-234 -39 -13 21 -91 47 -143 47 -233 0 -305 -304 -98 -411 50 -26 146 -26 197
0 35 19 94 75 102 100 5 12 1285 288 1295 279 5 -5 -403 -819 -419 -836 -13
-13 -87 -29 -812 -182 -236 -50 -470 -99 -520 -110 -75 -16 -94 -17 -115 -6
-14 7 -126 95 -250 197 -124 101 -303 247 -397 323 -109 88 -176 150 -184 169
-12 28 -1 51 224 503 158 317 244 478 259 487 13 8 253 63 533 122 281 60 587
125 680 146 201 44 203 44 235 22z m2500 1 c41 -8 293 -62 560 -119 267 -57
544 -115 615 -130 72 -15 140 -34 153 -41 15 -10 104 -177 259 -488 193 -385
235 -477 229 -499 -4 -19 -114 -114 -409 -354 -221 -180 -413 -333 -427 -339
-19 -10 -37 -10 -70 -3 -25 6 -139 30 -255 54 -605 126 -1105 234 -1115 240
-19 12 -431 845 -418 845 10 0 635 -132 1261 -267 15 -3 27 -9 27 -14 0 -17
65 -81 101 -100 51 -26 147 -26 197 0 207 107 135 411 -98 411 -52 0 -130 -26
-143 -47 -4 -6 -148 20 -344 62 -186 40 -473 100 -638 135 -165 34 -304 66
-308 70 -4 4 83 81 194 171 111 90 265 216 343 279 156 128 186 150 201 150 5
0 44 -7 85 -16z"/>
<path d="M6403 4985 c-78 -39 -123 -114 -123 -206 0 -154 143 -259 293 -215
101 29 160 112 160 222 -1 174 -172 277 -330 199z"/>
<path d="M5005 4450 c-11 -12 -52 -37 -92 -57 -103 -51 -185 -55 -343 -17
-149 35 -319 43 -440 20 -222 -41 -381 -182 -421 -374 -14 -67 -7 -188 15
-250 36 -100 123 -183 231 -219 l50 -16 -50 -17 c-79 -27 -129 -56 -163 -95
-39 -44 -45 -67 -40 -154 3 -56 9 -75 32 -106 16 -20 45 -44 65 -52 56 -24
198 -41 421 -51 225 -10 270 -20 315 -73 51 -61 44 -138 -17 -205 -60 -65
-107 -79 -268 -79 -121 0 -140 2 -182 23 -68 33 -93 78 -93 165 l0 68 -165 1
-165 1 -15 -29 c-10 -19 -15 -58 -15 -109 0 -71 4 -88 33 -147 55 -112 156
-185 320 -230 68 -19 103 -22 292 -22 232 0 302 11 424 67 163 75 258 222 258
397 1 108 -21 183 -70 248 -106 141 -207 177 -527 188 -104 4 -196 11 -202 16
-33 26 -5 65 80 112 39 21 61 26 120 26 311 1 537 202 514 457 -6 65 -35 143
-64 175 -15 17 -12 18 64 18 44 0 101 7 128 14 47 15 145 74 145 88 0 8 -148
238 -153 238 -2 0 -12 -9 -22 -20z m-614 -322 c103 -34 155 -138 129 -254 -23
-102 -88 -146 -219 -146 -148 -1 -224 66 -223 195 0 107 39 170 126 204 40 15
144 16 187 1z"/>
<path d="M2710 4405 c-97 -18 -232 -66 -340 -120 -134 -68 -130 -51 -44 -195
41 -69 79 -126 84 -128 5 -2 22 5 37 16 49 34 187 100 248 118 75 21 182 21
223 0 46 -24 64 -67 70 -167 l5 -86 -159 -5 c-421 -14 -615 -167 -614 -487 1
-280 175 -440 481 -441 144 0 245 32 332 108 l48 42 32 -43 c31 -41 152 -131
168 -125 4 2 50 52 102 113 l95 110 -49 52 c-27 28 -55 65 -62 80 -9 20 -13
148 -17 463 l-5 435 -28 56 c-33 68 -100 132 -172 165 -111 51 -283 66 -435
39z m270 -968 l0 -153 -32 -31 c-44 -41 -89 -63 -146 -70 -62 -7 -111 14 -148
63 -27 35 -29 44 -29 128 0 80 3 95 24 125 40 56 134 85 289 90 l42 1 0 -153z"/>
<path d="M5450 4376 c-108 -29 -154 -46 -152 -55 2 -8 10 -43 19 -80 14 -56
17 -157 20 -673 l4 -608 185 0 184 0 1 498 c1 273 1 500 1 504 -2 14 92 91
135 110 36 16 59 19 107 15 33 -3 70 -8 81 -12 19 -6 25 6 68 147 26 84 47
158 47 164 0 20 -86 37 -158 32 -88 -7 -151 -39 -239 -123 -37 -36 -69 -65
-70 -65 0 0 -4 19 -8 43 -11 61 -45 147 -58 146 -7 0 -82 -20 -167 -43z"/>
<path d="M6490 4391 l-165 -26 -3 -703 -2 -702 185 0 185 0 0 730 c0 689 -1
730 -17 729 -10 -1 -92 -13 -183 -28z"/>
<path d="M9910 4410 c-147 -20 -255 -73 -360 -179 -161 -163 -235 -414 -200
-687 37 -299 183 -498 425 -580 104 -35 264 -44 373 -20 234 49 410 225 484
482 20 69 23 101 23 254 0 152 -3 185 -23 253 -48 167 -134 294 -253 373 -91
60 -176 91 -287 104 -95 11 -102 11 -182 0z m200 -290 c99 -50 142 -182 143
-435 1 -330 -77 -484 -244 -485 -140 0 -211 77 -244 268 -38 217 -3 514 72
603 62 73 181 95 273 49z"/>
<path d="M7501 4383 c-8 -17 -59 -129 -316 -698 -65 -143 -139 -308 -166 -367
l-49 -107 0 -126 0 -126 415 3 415 3 0 -269 0 -268 33 5 c17 4 97 14 175 23
l144 18 -4 245 -3 246 100 0 100 0 3 158 3 157 -103 0 -103 0 4 371 c3 357 2
371 -15 366 -11 -3 -75 -18 -144 -33 -69 -15 -127 -29 -129 -30 -7 -6 -41
-375 -47 -521 l-7 -153 -214 0 c-117 0 -213 3 -213 6 0 3 18 36 40 74 31 52
419 911 461 1018 l9 22 -190 0 c-170 0 -190 -2 -199 -17z"/>
<path d="M8748 3396 c-61 -17 -111 -56 -145 -114 -37 -62 -39 -165 -6 -227 27
-51 78 -100 125 -119 46 -20 138 -21 182 -2 51 21 107 76 132 131 87 185 -88
387 -288 331z"/>
</g>
</svg>
