<svg width="114" height="107" viewBox="0 0 114 107" fill="none" xmlns="http://www.w3.org/2000/svg">
<g clip-path="url(#clip0_878_3514)">
<path d="M0 56.1358C0.643699 54.8581 1.70456 54.4498 3.08036 54.5359C4.24896 54.6081 5.42862 54.5248 6.59998 54.5665C7.9454 54.6137 8.81287 55.4414 8.86812 56.6414C8.92338 57.8663 8.16365 58.8329 6.82928 58.9273C5.2601 59.0384 3.67709 58.9968 2.10514 58.9412C1.03047 58.9051 0.411636 58.1746 0 57.2441V56.1358H0Z" fill="#2DB273"/>
<path d="M113.158 57.2442C112.636 58.5469 111.633 59.033 110.285 58.9941C109.114 58.9608 107.937 59.0163 106.766 58.9775C105.216 58.9275 104.285 58.0636 104.287 56.7498C104.287 55.4193 105.218 54.586 106.777 54.5555C107.876 54.5332 108.981 54.6082 110.075 54.536C111.451 54.4471 112.512 54.8582 113.156 56.1332V57.2414L113.158 57.2442Z" fill="#2DB273"/>
<path d="M56.6594 32.1704C65.4253 32.1704 74.1912 32.2037 82.9571 32.1482C85.4545 32.1315 87.2171 33.1176 88.5487 35.2119C92.3501 41.1921 96.2206 47.1251 100.055 53.0832C101.782 55.7636 101.627 57.9329 99.4944 60.3355C86.637 74.832 73.7658 89.3145 60.9166 103.817C59.2452 105.705 57.2782 106.658 54.8416 105.722C53.8636 105.344 52.9464 104.569 52.2309 103.769C42.2549 92.5894 32.3176 81.3733 22.3721 70.1656C19.5293 66.963 16.6865 63.7631 13.8465 60.5605C11.4651 57.8746 11.3049 55.8524 13.236 52.8693C17.0457 46.9835 20.8858 41.1171 24.6513 35.2008C25.9884 33.1009 27.751 32.1315 30.2456 32.1482C39.0475 32.2037 47.8521 32.1704 56.6539 32.1704H56.6594ZM60.9415 96.7669C61.0106 96.803 61.0796 96.8391 61.1515 96.8725C72.296 84.3148 83.4406 71.7544 94.7205 59.0439H72.5198C68.6548 71.6377 64.7982 84.2009 60.9443 96.7669H60.9415ZM18.4215 59.0328C29.7235 71.7683 40.8598 84.3148 51.996 96.8614C52.1259 96.5669 52.0927 96.3892 52.0402 96.2197C48.3217 84.0898 44.5921 71.9627 40.8957 59.8272C40.6747 59.1023 40.3155 58.9717 39.6414 58.9745C32.9033 58.9967 26.1652 58.9884 19.4243 58.9884C19.1757 58.9884 18.927 59.0106 18.4215 59.0328ZM45.2524 59.0217C49.0124 71.2683 52.7337 83.3871 56.455 95.5059L56.7146 95.4753C60.4359 83.351 64.1545 71.2266 67.9006 59.0189H45.2551L45.2524 59.0217ZM27.8587 38.4284C24.3418 43.8614 20.9465 49.1084 17.4601 54.4886H38.2076C34.7377 49.1028 31.3535 43.8531 27.8587 38.4284ZM85.3413 38.4367C81.8465 43.8614 78.4678 49.1084 75.0283 54.4497H95.6681C92.2037 49.075 88.8278 43.842 85.3413 38.4367ZM70.9064 52.6665C74.368 47.2918 77.7606 42.0226 81.1945 36.6924H60.6072C64.0633 42.0504 67.4338 47.2835 70.9064 52.6665ZM52.5347 36.6924H32.0027C35.4588 42.0532 38.8375 47.289 42.277 52.6221C45.7469 47.2362 49.1008 42.0282 52.5375 36.6924H52.5347ZM66.8232 54.4997C63.3588 49.1278 60.0133 43.942 56.571 38.6062C53.1066 43.9836 49.7528 49.1889 46.3298 54.4997H66.8204H66.8232Z" fill="#2DB273"/>
<path d="M58.8251 9.46335C58.8251 11.716 58.8362 13.9687 58.8196 16.2213C58.8086 17.8379 57.9245 18.8628 56.6095 18.8434C55.3304 18.824 54.4242 17.8351 54.4132 16.288C54.3855 11.7077 54.3855 7.12736 54.4132 2.54983C54.4215 0.949914 55.3718 -0.0444767 56.7062 -3.4626e-05C58.0129 0.0444074 58.8058 0.994356 58.8168 2.59427C58.8334 4.88304 58.8224 7.17458 58.8224 9.46335H58.8251Z" fill="#2DB273"/>
<path d="M97.2538 18.5376C97.0494 18.8764 96.8063 19.5181 96.3698 19.968C94.1099 22.2985 91.8169 24.5983 89.5046 26.876C88.3884 27.9732 87.0955 28.0232 86.17 27.0954C85.2473 26.1705 85.2943 24.8622 86.3828 23.7484C88.6537 21.4263 90.9549 19.1375 93.2535 16.846C94.0132 16.0877 94.9 15.7044 95.9554 16.1988C96.8007 16.596 97.2068 17.3015 97.2566 18.5376H97.2538Z" fill="#2DB273"/>
<path d="M27.7068 25.079C27.7151 27.1178 26.0271 28.1899 24.5933 27.4594C24.2397 27.2789 23.9192 27.0066 23.6374 26.7233C21.4162 24.5123 19.2061 22.2902 16.9987 20.0598C16.7418 19.8015 16.5042 19.5098 16.3219 19.1932C15.8191 18.3238 15.9876 17.2433 16.6976 16.5572C17.4021 15.8767 18.4961 15.7545 19.3415 16.2906C19.6177 16.4655 19.8719 16.6878 20.1067 16.9211C22.3251 19.1376 24.5518 21.3431 26.7316 23.5957C27.215 24.0957 27.5162 24.7762 27.7096 25.0762L27.7068 25.079Z" fill="#2DB273"/>
<path d="M56.6428 26.3511C55.4908 26.3566 54.4493 25.3178 54.441 24.1567C54.4327 22.9874 55.4493 21.968 56.6262 21.9624C57.828 21.9596 58.8032 22.9318 58.806 24.1373C58.8087 25.3261 57.8142 26.3455 56.6428 26.3483V26.3511Z" fill="#2DB273"/>
</g>
<defs>
<clipPath id="clip0_878_3514">
<rect width="113.158" height="106.086" fill="white"/>
</clipPath>
</defs>
</svg>
