<svg width="130" height="102" viewBox="0 0 130 102" fill="none" xmlns="http://www.w3.org/2000/svg">
<path d="M129.997 73.6718C129.874 74.2686 129.762 74.8679 129.649 75.4672C129.402 76.7867 129.154 78.1055 128.798 79.3935C125.305 92.0469 113.087 102.304 97.7073 101.084C83.7835 99.98 72.9132 89.3091 70.8482 76.3276C70.4816 74.0224 70.494 71.6468 70.5062 69.282C70.5093 68.698 70.5123 68.1146 70.5096 67.5332C70.5 65.0778 70.5309 62.6224 70.5619 60.1671C70.5853 58.3089 70.6087 56.4508 70.6146 54.5927C70.6146 54.2919 70.3471 53.8544 70.0797 53.7074C66.7688 51.8515 63.4106 51.643 60.0997 53.6596C59.7206 53.8886 59.4396 54.6132 59.443 55.102L59.443 55.104C59.4701 59.8851 59.4972 64.6696 59.6596 69.4472C60.1844 84.917 50.1875 97.7139 35.1702 100.711C19.337 103.87 3.16528 92.5904 0.497643 76.5361C0.400061 75.9519 0.284223 75.3691 0.168487 74.7869C0.111572 74.5006 0.0546826 74.2144 0 73.9282V68.2885C0.0994854 67.7938 0.182758 67.293 0.266058 66.7921C0.449207 65.6907 0.632489 64.5886 0.988516 63.5478C2.25473 59.8463 3.6303 56.1844 5.00549 52.5234C5.14141 52.1616 5.27733 51.7998 5.41314 51.4379C6.25545 49.1958 7.12003 46.9616 7.9846 44.7275C9.79564 40.0475 11.6067 35.3675 13.2129 30.6156C14.7059 26.1995 17.3227 22.9525 21.3106 20.9256C23.6228 19.7498 24.8178 18.0203 25.698 15.7132C26.4373 13.7758 27.2677 11.8743 28.0981 9.97271C28.7167 8.55642 29.3352 7.14006 29.9161 5.70876C30.4239 4.46462 31.1721 3.55544 32.2791 2.82741C35.16 0.940681 38.217 -0.368405 41.7072 0.0930224C46.142 0.680915 49.4224 3.1487 51.7684 6.92556C51.9953 7.29129 52.0257 7.82107 52.046 8.27908C52.1102 9.8279 52.1683 11.3771 52.2263 12.9263C52.3458 16.1155 52.4653 19.3048 52.6385 22.491C52.6791 23.2567 53.0549 24.1453 53.5627 24.7161C55.7056 27.1327 57.317 29.8534 58.4782 33.015C62.8351 30.5848 67.1615 30.6634 71.5184 33.0492C71.6743 32.7038 71.815 32.3595 71.9532 32.021C72.2474 31.301 72.5307 30.6075 72.9267 29.9867C73.6166 28.9092 74.3589 27.8662 75.1014 26.8231C75.6379 26.0694 76.1744 25.3157 76.6912 24.5487C77.023 24.0565 77.3818 23.4583 77.4089 22.8944C77.5203 20.6166 77.6078 18.3373 77.6953 16.0584C77.7913 13.5564 77.8873 11.0548 78.0149 8.55594C78.0555 7.75271 78.3162 6.83328 78.78 6.19411C83.7395 -0.628171 91.458 -2.33032 98.9836 3.74684C99.4136 4.09548 99.6844 4.70046 99.918 5.23366C100.63 6.87945 101.334 8.52917 102.038 10.1791C103.19 12.8775 104.343 15.5764 105.527 18.2596C105.792 18.8577 106.364 19.3841 106.912 19.7737C107.597 20.2575 108.309 20.708 109.021 21.1581C110.284 21.9579 111.547 22.7566 112.654 23.7386C113.94 24.8802 115.105 26.4217 115.727 28.0213C119.983 38.9315 124.133 49.8861 128.189 60.8715C128.788 62.4961 129.14 64.2155 129.492 65.9349C129.654 66.7225 129.815 67.5101 130 68.2885V73.6718H129.997ZM126.259 71.1289C126.293 56.5888 114.671 44.7523 100.307 44.6976C85.7741 44.643 74.0541 56.4179 74.0507 71.0742C74.0507 85.604 85.6928 97.4165 100.064 97.4644C114.485 97.5157 126.222 85.7134 126.256 71.1255L126.259 71.1289ZM3.7374 71.081C3.74079 85.6655 15.4608 97.4952 29.8823 97.4678C44.2598 97.4405 55.9053 85.6655 55.9426 71.1186C55.9798 56.5273 44.3004 44.6976 29.8518 44.6976C15.3965 44.6976 3.73063 56.4794 3.73402 71.0844L3.7374 71.081ZM55.6006 55.7582C55.6128 55.5184 55.6253 55.318 55.6363 55.1429C55.6559 54.8289 55.6705 54.5963 55.6683 54.3637C55.6567 52.7307 55.6364 51.0976 55.6161 49.4647C55.5716 45.8855 55.5271 42.3069 55.5736 38.7299C55.6108 35.7425 54.7374 33.0936 53.2648 30.6053C49.2362 23.8138 42.8786 21.2982 35.4444 20.8709C29.8146 20.5462 24.9329 22.5184 20.5219 25.95C19.1711 27.0028 18.1487 28.223 17.5495 29.8363C16.8495 31.7203 16.1367 33.5987 15.424 35.4769C15.0338 36.5051 14.6437 37.5333 14.2556 38.5624C13.6029 40.2894 12.9524 42.0176 12.275 43.8173C11.7861 45.1163 11.2831 46.4525 10.7552 47.8524C18.1352 42.0966 26.1144 39.8715 34.9467 41.4095C43.8468 42.9579 50.5937 47.8729 55.6006 55.7582ZM119.14 47.7123C119.123 47.5948 119.113 47.5028 119.106 47.4277C119.094 47.3082 119.086 47.2312 119.059 47.162C118.509 45.711 117.961 44.2592 117.413 42.8074C115.721 38.3256 114.029 33.8436 112.278 29.3851C111.888 28.3905 111.218 27.389 110.416 26.702C105.142 22.1595 99.1292 20.054 92.1216 21.1033C87.2602 21.8314 82.8559 23.4207 79.4367 27.1327C76.3764 30.4515 74.4603 34.2318 74.5348 38.952C74.5907 42.4462 74.5264 45.9404 74.4621 49.4357C74.4329 51.0211 74.4038 52.6068 74.3858 54.1928C74.3837 54.4494 74.3842 54.7074 74.385 55.0204C74.3854 55.1994 74.3858 55.3964 74.3858 55.6215C83.7429 39.7211 105.24 36.327 119.14 47.7157V47.7123ZM48.8298 20.7478C48.7979 19.9508 48.7665 19.1621 48.7355 18.3801C48.6053 15.105 48.4799 11.9467 48.3323 8.78836C48.3188 8.47732 48.1461 8.12527 47.943 7.87234C45.6071 4.96364 42.7195 3.282 38.8873 3.96901C36.8696 4.33132 34.6184 4.87136 33.6468 6.72048C32.3738 9.14203 31.3366 11.6885 30.279 14.2852C29.8319 15.383 29.3811 16.4898 28.9073 17.5999C35.881 16.4276 42.3978 17.3811 48.8298 20.7478ZM81.2242 20.7684C87.5988 17.4119 94.1189 16.4412 101.113 17.5897C101.04 17.4065 100.975 17.2407 100.915 17.0863C100.802 16.7972 100.704 16.5484 100.598 16.3011C100.25 15.4798 99.8912 14.6621 99.5326 13.8442C98.7106 11.9696 97.8884 10.0946 97.186 8.17654C96.5496 6.44363 95.3647 5.48318 93.821 4.77565C89.5927 2.8445 85.1139 3.96559 82.2601 7.69803C82.013 8.01931 81.7658 8.43631 81.7455 8.82254C81.5885 11.9037 81.4608 14.987 81.3296 18.157C81.2938 19.0204 81.2578 19.8903 81.2208 20.7684H81.2242ZM70.838 49.6947C70.838 48.9376 70.8383 48.1873 70.8386 47.4426C70.8401 43.9984 70.8415 40.6742 70.8109 37.3524C70.8109 37.1063 70.469 36.785 70.2083 36.6278C66.9009 34.6112 63.5494 34.3754 60.1268 36.3817C59.4091 36.8021 59.162 37.2875 59.1857 38.1249C59.2511 40.4572 59.2835 42.7926 59.3158 45.127C59.332 46.2957 59.3482 47.4641 59.3685 48.6317C59.3729 48.8328 59.4027 49.0353 59.437 49.2679C59.4557 49.395 59.4758 49.5312 59.4938 49.6811C63.2413 48.0951 66.9043 48.1225 70.8346 49.6913L70.838 49.6947Z" fill="#2DB273"/>
<path d="M129.997 73.6718C129.874 74.2686 129.762 74.8679 129.649 75.4672C129.402 76.7867 129.154 78.1055 128.798 79.3935C125.305 92.0469 113.087 102.304 97.7073 101.084C83.7835 99.98 72.9132 89.3091 70.8482 76.3276C70.4816 74.0224 70.494 71.6468 70.5062 69.282C70.5093 68.698 70.5123 68.1146 70.5096 67.5332C70.5 65.0778 70.5309 62.6224 70.5619 60.1671C70.5853 58.3089 70.6087 56.4508 70.6146 54.5927C70.6146 54.2919 70.3471 53.8544 70.0797 53.7074C66.7688 51.8515 63.4106 51.643 60.0997 53.6596C59.7206 53.8886 59.4396 54.6132 59.443 55.102L59.443 55.104C59.4701 59.8851 59.4972 64.6696 59.6596 69.4472C60.1844 84.917 50.1875 97.7139 35.1702 100.711C19.337 103.87 3.16528 92.5904 0.497643 76.5361C0.400061 75.9519 0.284223 75.3691 0.168487 74.7869C0.111572 74.5006 0.0546826 74.2144 0 73.9282V68.2885C0.0994854 67.7938 0.182758 67.293 0.266058 66.7921C0.449207 65.6907 0.632489 64.5886 0.988516 63.5478C2.25473 59.8463 3.6303 56.1844 5.00549 52.5234C5.14141 52.1616 5.27733 51.7998 5.41314 51.4379C6.25545 49.1958 7.12003 46.9616 7.9846 44.7275C9.79564 40.0475 11.6067 35.3675 13.2129 30.6156C14.7059 26.1995 17.3227 22.9525 21.3106 20.9256C23.6228 19.7498 24.8178 18.0203 25.698 15.7132C26.4373 13.7758 27.2677 11.8743 28.0981 9.97271C28.7167 8.55642 29.3352 7.14006 29.9161 5.70876C30.4239 4.46462 31.1721 3.55544 32.2791 2.82741C35.16 0.940681 38.217 -0.368405 41.7072 0.0930224C46.142 0.680915 49.4224 3.1487 51.7684 6.92556C51.9953 7.29129 52.0257 7.82107 52.046 8.27908C52.1102 9.8279 52.1683 11.3771 52.2263 12.9263C52.3458 16.1155 52.4653 19.3048 52.6385 22.491C52.6791 23.2567 53.0549 24.1453 53.5627 24.7161C55.7056 27.1327 57.317 29.8534 58.4782 33.015C62.8351 30.5848 67.1615 30.6634 71.5184 33.0492C71.6743 32.7038 71.815 32.3595 71.9532 32.021C72.2474 31.301 72.5307 30.6075 72.9267 29.9867C73.6166 28.9092 74.3589 27.8662 75.1014 26.8231C75.6379 26.0694 76.1744 25.3157 76.6912 24.5487C77.023 24.0565 77.3818 23.4583 77.4089 22.8944C77.5203 20.6166 77.6078 18.3373 77.6953 16.0584C77.7913 13.5564 77.8873 11.0548 78.0149 8.55594C78.0555 7.75271 78.3162 6.83328 78.78 6.19411C83.7395 -0.628171 91.458 -2.33032 98.9836 3.74684C99.4136 4.09548 99.6844 4.70046 99.918 5.23366C100.63 6.87945 101.334 8.52917 102.038 10.1791C103.19 12.8775 104.343 15.5764 105.527 18.2596C105.792 18.8577 106.364 19.3841 106.912 19.7737C107.597 20.2575 108.309 20.708 109.021 21.1581C110.284 21.9579 111.547 22.7566 112.654 23.7386C113.94 24.8802 115.105 26.4217 115.727 28.0213C119.983 38.9315 124.133 49.8861 128.189 60.8715C128.788 62.4961 129.14 64.2155 129.492 65.9349C129.654 66.7225 129.815 67.5101 130 68.2885V73.6718H129.997ZM126.259 71.1289C126.293 56.5888 114.671 44.7523 100.307 44.6976C85.7741 44.643 74.0541 56.4179 74.0507 71.0742C74.0507 85.604 85.6928 97.4165 100.064 97.4644C114.485 97.5157 126.222 85.7134 126.256 71.1255L126.259 71.1289ZM3.7374 71.081C3.74079 85.6655 15.4608 97.4952 29.8823 97.4678C44.2598 97.4405 55.9053 85.6655 55.9426 71.1186C55.9798 56.5273 44.3004 44.6976 29.8518 44.6976C15.3965 44.6976 3.73063 56.4794 3.73402 71.0844L3.7374 71.081ZM55.6006 55.7582C55.6128 55.5184 55.6253 55.318 55.6363 55.1429C55.6559 54.8289 55.6705 54.5963 55.6683 54.3637C55.6567 52.7307 55.6364 51.0976 55.6161 49.4647C55.5716 45.8855 55.5271 42.3069 55.5736 38.7299C55.6108 35.7425 54.7374 33.0936 53.2648 30.6053C49.2362 23.8138 42.8786 21.2982 35.4444 20.8709C29.8146 20.5462 24.9329 22.5184 20.5219 25.95C19.1711 27.0028 18.1487 28.223 17.5495 29.8363C16.8495 31.7203 16.1367 33.5987 15.424 35.4769C15.0338 36.5051 14.6437 37.5333 14.2556 38.5624C13.6029 40.2894 12.9524 42.0176 12.275 43.8173C11.7861 45.1163 11.2831 46.4525 10.7552 47.8524C18.1352 42.0966 26.1144 39.8715 34.9467 41.4095C43.8468 42.9579 50.5937 47.8729 55.6006 55.7582ZM119.14 47.7123C119.123 47.5948 119.113 47.5028 119.106 47.4277C119.094 47.3082 119.086 47.2312 119.059 47.162C118.509 45.711 117.961 44.2592 117.413 42.8074C115.721 38.3256 114.029 33.8436 112.278 29.3851C111.888 28.3905 111.218 27.389 110.416 26.702C105.142 22.1595 99.1292 20.054 92.1216 21.1033C87.2602 21.8314 82.8559 23.4207 79.4367 27.1327C76.3764 30.4515 74.4603 34.2318 74.5348 38.952C74.5907 42.4462 74.5264 45.9404 74.4621 49.4357C74.4329 51.0211 74.4038 52.6068 74.3858 54.1928C74.3837 54.4494 74.3842 54.7074 74.385 55.0204C74.3854 55.1994 74.3858 55.3964 74.3858 55.6215C83.7429 39.7211 105.24 36.327 119.14 47.7157V47.7123ZM48.8298 20.7478C48.7979 19.9508 48.7665 19.1621 48.7355 18.3801C48.6053 15.105 48.4799 11.9467 48.3323 8.78836C48.3188 8.47732 48.1461 8.12527 47.943 7.87234C45.6071 4.96364 42.7195 3.282 38.8873 3.96901C36.8696 4.33132 34.6184 4.87136 33.6468 6.72048C32.3738 9.14203 31.3366 11.6885 30.279 14.2852C29.8319 15.383 29.3811 16.4898 28.9073 17.5999C35.881 16.4276 42.3978 17.3811 48.8298 20.7478ZM81.2242 20.7684C87.5988 17.4119 94.1189 16.4412 101.113 17.5897C101.04 17.4065 100.975 17.2407 100.915 17.0863C100.802 16.7972 100.704 16.5484 100.598 16.3011C100.25 15.4798 99.8912 14.6621 99.5326 13.8442C98.7106 11.9696 97.8884 10.0946 97.186 8.17654C96.5496 6.44363 95.3647 5.48318 93.821 4.77565C89.5927 2.8445 85.1139 3.96559 82.2601 7.69803C82.013 8.01931 81.7658 8.43631 81.7455 8.82254C81.5885 11.9037 81.4608 14.987 81.3296 18.157C81.2938 19.0204 81.2578 19.8903 81.2208 20.7684H81.2242ZM70.838 49.6947C70.838 48.9376 70.8383 48.1873 70.8386 47.4426C70.8401 43.9984 70.8415 40.6742 70.8109 37.3524C70.8109 37.1063 70.469 36.785 70.2083 36.6278C66.9009 34.6112 63.5494 34.3754 60.1268 36.3817C59.4091 36.8021 59.162 37.2875 59.1857 38.1249C59.2511 40.4572 59.2835 42.7926 59.3158 45.127C59.332 46.2957 59.3482 47.4641 59.3685 48.6317C59.3729 48.8328 59.4027 49.0353 59.437 49.2679C59.4557 49.395 59.4758 49.5312 59.4938 49.6811C63.2413 48.0951 66.9043 48.1225 70.8346 49.6913L70.838 49.6947Z" stroke="#2DB273"/>
<path d="M100.212 89.9546C89.9516 90.0162 81.5322 81.5943 81.4781 71.2173C81.4205 60.748 89.718 52.2338 100.04 52.1655C110.308 52.0971 118.771 60.5053 118.842 70.8481C118.916 81.396 110.633 89.8897 100.212 89.9512V89.9546ZM115.142 70.8823C114.966 62.3374 108.198 55.7988 99.6912 55.9594C91.6307 56.1098 84.9582 63.1679 85.1681 71.3198C85.3848 79.7827 92.2163 86.3897 100.565 86.2119C108.659 86.0376 115.308 79.0444 115.142 70.8823Z" fill="#2DB273"/>
<path d="M100.212 89.9546C89.9516 90.0162 81.5322 81.5943 81.4781 71.2173C81.4205 60.748 89.718 52.2338 100.04 52.1655C110.308 52.0971 118.771 60.5053 118.842 70.8481C118.916 81.396 110.633 89.8897 100.212 89.9512V89.9546ZM115.142 70.8823C114.966 62.3374 108.198 55.7988 99.6912 55.9594C91.6307 56.1098 84.9582 63.1679 85.1681 71.3198C85.3848 79.7827 92.2163 86.3897 100.565 86.2119C108.659 86.0376 115.308 79.0444 115.142 70.8823Z" stroke="#2DB273"/>
<path d="M29.8755 89.9584C19.5977 89.9857 11.1919 81.5672 11.1547 71.2039C11.1174 60.7278 19.4183 52.2239 29.7401 52.1692C40.0654 52.1145 48.4948 60.5672 48.5219 71.0023C48.549 81.4715 40.2313 89.931 29.8755 89.9584ZM29.8417 55.9529C21.551 55.9597 14.821 62.7615 14.8548 71.1048C14.8887 79.4618 21.639 86.2362 29.906 86.2157C38.0883 86.1952 44.8116 79.3866 44.8353 71.098C44.859 62.7444 38.129 55.9461 29.8417 55.9529Z" fill="#2DB273"/>
<path d="M29.8755 89.9584C19.5977 89.9857 11.1919 81.5672 11.1547 71.2039C11.1174 60.7278 19.4183 52.2239 29.7401 52.1692C40.0654 52.1145 48.4948 60.5672 48.5219 71.0023C48.549 81.4715 40.2313 89.931 29.8755 89.9584ZM29.8417 55.9529C21.551 55.9597 14.821 62.7615 14.8548 71.1048C14.8887 79.4618 21.639 86.2362 29.906 86.2157C38.0883 86.1952 44.8116 79.3866 44.8353 71.098C44.859 62.7444 38.129 55.9461 29.8417 55.9529Z" stroke="#2DB273"/>
</svg>
