<svg width="133" height="108" viewBox="0 0 133 108" fill="none" xmlns="http://www.w3.org/2000/svg">
<path d="M0 46.6195C0.811361 45.1991 2.01465 44.7441 3.63394 44.7511C13.5181 44.8066 23.3988 44.7789 33.283 44.7789C33.7918 44.7789 34.3041 44.7789 34.9126 44.7789V27.9456C32.9873 27.7615 31.069 27.6365 29.1712 27.3899C20.2772 26.2334 14.5804 20.5899 13.4528 11.6194C13.109 8.88966 13.1674 6.09396 13.2018 3.32951C13.2293 1.29785 14.1335 0.349741 16.0828 0.176095C20.1775 -0.195508 24.2343 -0.00449742 28.2017 1.22492C34.8782 3.29478 38.5362 8.01448 39.9458 14.7311C40.0249 15.1131 40.1074 15.4917 40.1727 15.8772C40.2311 16.2141 40.269 16.5509 40.3343 17.0128C40.6128 16.8635 40.8397 16.7836 41.0184 16.6412C46.3576 12.505 52.4944 11.9285 58.8925 12.6231C60.1198 12.755 60.9174 13.6476 61.0721 14.8805C61.6463 19.5029 61.3128 24.042 59.6213 28.4214C57.3729 34.2455 52.8588 37.1766 47.0074 38.2706C44.9102 38.663 42.7546 38.7568 40.5096 38.9999V44.692H92.5777V27.9282C90.3499 27.7025 88.1462 27.6539 86.0112 27.2371C76.8249 25.4451 71.7573 19.7703 70.9529 10.3691C70.7466 7.96586 70.8463 5.52787 70.9219 3.11072C70.9769 1.31869 71.833 0.377524 73.607 0.203878C78.537 -0.282331 83.3983 0.0163401 88.019 2.03064C93.7019 4.50683 96.5417 9.16402 97.7175 15.061C97.8447 15.6931 97.9444 16.3287 98.0166 16.7246C100.203 15.6688 102.345 14.3977 104.648 13.5712C108.427 12.2167 112.387 12.0882 116.358 12.5779C117.757 12.7481 118.665 13.6545 118.809 15.1722C119.225 19.5689 118.995 23.9101 117.445 28.1019C115.224 34.0996 110.672 37.1697 104.652 38.281C102.551 38.67 100.396 38.7637 98.1507 39.0069V44.765C101.444 44.765 104.697 44.765 107.949 44.765C114.735 44.7719 121.525 44.7615 128.312 44.8205C129.701 44.8309 131.196 44.8553 132.028 46.3625V48.1823C131.21 49.9361 129.783 50.2383 127.989 50.1792C109.706 49.5958 92.0689 52.5513 75.3122 60.1708C74.2568 60.6501 73.2254 61.1884 72.1871 61.7024C71.9567 61.817 71.7367 61.949 71.3964 62.133C71.6955 62.3831 71.9327 62.6019 72.1905 62.7964C74.4218 64.4842 76.684 66.1373 78.8774 67.8773C79.5065 68.3774 79.9741 68.4399 80.6961 68.11C94.1076 61.949 108.207 59.0248 122.932 59.1047C123.403 59.1047 123.88 59.0977 124.348 59.1463C125.957 59.3165 126.978 60.4626 126.913 61.9976C126.847 63.5222 125.734 64.4842 124.09 64.5815C118.864 64.8975 113.615 65.0086 108.427 65.6511C100.389 66.6479 92.6258 68.8566 85.162 72.0691C84.856 72.2011 84.5535 72.34 84.1753 72.5101C86.0627 74.6252 87.8746 76.6916 89.7517 78.6989C89.9408 78.9003 90.5493 78.8587 90.8931 78.7336C97.0952 76.4797 103.449 74.8092 110.001 74.1389C114.605 73.6701 119.249 73.5486 123.877 73.3853C125.861 73.3159 126.957 74.4168 126.94 76.0942C126.923 77.7925 125.689 78.8239 123.695 78.7788C113.725 78.56 104.016 80.0429 94.5614 83.238C94.2417 83.3457 93.9288 83.4811 93.5163 83.6409C94.0388 84.4119 94.5236 85.1203 94.998 85.8323C98.601 91.2431 101.54 97.0012 103.902 103.065C104.614 104.895 104.14 106.375 102.648 107.021C101.118 107.684 99.6462 106.965 98.9139 105.09C94.2898 93.2574 87.4998 82.9185 78.1004 74.382C67.9928 65.2031 56.2005 59.1255 43.2462 55.1941C30.292 51.2628 17.0248 49.832 3.54111 50.2036C1.90464 50.2487 0.701346 49.7139 0.0137519 48.1754V46.616L0 46.6195ZM18.5375 5.61817C16.6054 15.5299 25.3963 24.3581 35.0708 22.2187C36.831 12.0604 28.1845 3.37813 18.5375 5.61817ZM76.2198 5.63553C75.6423 17.3636 81.1396 22.9342 92.7118 22.2153C94.6164 12.182 85.7258 3.24269 76.2198 5.63553ZM55.7811 17.8637C45.6735 16.9746 38.6841 24.1323 40.6334 33.2835C51.3117 33.8079 56.3827 28.7374 55.7811 17.8637ZM98.2916 33.2974C108.984 33.7627 114.178 28.7756 113.46 17.9262C102.943 17.3184 97.6831 22.4098 98.2916 33.2974ZM84.9385 50.2939H46.7117C46.8183 50.4189 46.8596 50.5057 46.918 50.5265C53.3298 52.6485 59.5216 55.2844 65.4315 58.5802C65.7478 58.7574 66.3357 58.6601 66.6967 58.483C68.3572 57.6738 69.9352 56.6945 71.6233 55.9547C76.0548 54.0099 80.5242 52.1623 84.9351 50.2939H84.9385Z" fill="#2DB273"/>
<path d="M11.751 64.6264C10.7953 64.6264 9.46476 64.6229 8.13083 64.6264C6.30182 64.6333 5.11229 63.6436 5.05384 62.046C4.9954 60.4519 6.10242 59.1843 7.91423 59.2364C12.3733 59.3649 16.8564 59.4378 21.2811 59.9484C33.1421 61.3202 44.4942 64.5708 55.1588 70.058C69.5467 77.4588 80.8198 88.1763 88.7547 102.405C88.9231 102.707 89.1019 103.002 89.2429 103.318C89.8686 104.721 89.4148 106.229 88.1737 106.92C86.9188 107.618 85.437 107.222 84.5638 105.94C84.3953 105.69 84.2475 105.426 84.0997 105.162C74.7484 88.3708 60.7662 77.1463 42.9678 70.6033C32.6367 66.8039 22.6769 64.9841 11.751 64.6264Z" fill="#2DB273"/>
<path d="M11.9606 73.2221C26.3279 73.684 39.6328 76.7888 51.982 83.5679C60.4738 88.232 67.6832 94.4208 73.5381 102.19C73.8991 102.666 74.2738 103.173 74.4664 103.728C74.8858 104.937 74.3392 106.253 73.2734 106.868C72.1526 107.517 70.7809 107.309 69.887 106.257C68.7421 104.909 67.7073 103.464 66.5418 102.138C57.1493 91.4306 45.247 84.9987 31.6774 81.4633C23.9866 79.4594 16.1652 78.5113 8.21665 78.6919C6.30513 78.7371 5.08809 77.7056 5.05028 76.0664C5.01246 74.4758 6.09542 73.4478 7.96911 73.3054C8.52606 73.2637 9.08302 73.229 9.6434 73.2221C10.5442 73.2082 11.4483 73.2186 11.9606 73.2186V73.2221Z" fill="#2DB273"/>
</svg>
